HIERARCHY
ROOT Hips
{
 OFFSET 0.000000 0.000000 0.000000
 CHANNELS 6 Xposition Yposition Zposition Yrotation Xrotation Zrotation
 JOINT Chest
 {
  OFFSET 0.000000 9.585900 0.002600
  CHANNELS 3 Yrotation Xrotation Zrotation
  JOINT Chest2
  {
   OFFSET 0.000000 9.601200 -0.005300
   CHANNELS 3 Yrotation Xrotation Zrotation
   JOINT Chest3
   {
    OFFSET 0.000000 9.561800 0.000000
    CHANNELS 3 Yrotation Xrotation Zrotation
    JOINT Chest4
    {
     OFFSET 0.000000 9.552100 0.000000
     CHANNELS 3 Yrotation Xrotation Zrotation
     JOINT Neck
     {
      OFFSET 0.000000 14.453000 0.000000
      CHANNELS 3 Yrotation Xrotation Zrotation
      JOINT Head
      {
       OFFSET 0.000000 8.936500 -0.011300
       CHANNELS 3 Yrotation Xrotation Zrotation
       End Site
       {
        OFFSET 0.000000 17.073600 -0.006000
       }
      }
     }
     JOINT RightCollar
     {
      OFFSET -2.921100 9.558500 0.000000
      CHANNELS 3 Yrotation Xrotation Zrotation
      JOINT RightShoulder
      {
       OFFSET -13.519700 0.000000 0.000000
       CHANNELS 3 Yrotation Xrotation Zrotation
       JOINT RightElbow
       {
        OFFSET 0.000000 -29.696600 0.000000
        CHANNELS 3 Yrotation Xrotation Zrotation
        JOINT RightWrist
        {
         OFFSET 0.000000 -24.004700 0.000000
         CHANNELS 3 Yrotation Xrotation Zrotation
         End Site
         {
          OFFSET 0.000000 -17.728500 0.000000
         }
        }
       }
      }
     }
     JOINT LeftCollar
     {
      OFFSET 2.921100 9.558500 0.000000
      CHANNELS 3 Yrotation Xrotation Zrotation
      JOINT LeftShoulder
      {
       OFFSET 13.519700 0.000000 0.000000
       CHANNELS 3 Yrotation Xrotation Zrotation
       JOINT LeftElbow
       {
        OFFSET 0.000000 -29.696600 0.000000
        CHANNELS 3 Yrotation Xrotation Zrotation
        JOINT LeftWrist
        {
         OFFSET 0.000000 -24.004700 0.000000
         CHANNELS 3 Yrotation Xrotation Zrotation
         End Site
         {
          OFFSET 0.000000 -17.728500 0.000000
         }
        }
       }
      }
     }
    }
   }
  }
 }
 JOINT RightHip
 {
  OFFSET -7.771700 -0.012900 -0.001300
  CHANNELS 3 Yrotation Xrotation Zrotation
  JOINT RightKnee
  {
   OFFSET 0.000000 -40.869800 0.001200
   CHANNELS 3 Yrotation Xrotation Zrotation
   JOINT RightAnkle
   {
    OFFSET 0.000000 -39.717900 0.002100
    CHANNELS 3 Yrotation Xrotation Zrotation
    JOINT RightToe
    {
     OFFSET 0.000000 -4.965400 11.033500
     CHANNELS 3 Yrotation Xrotation Zrotation
     End Site
     {
      OFFSET 0.000000 -1.423100 5.872300
     }
    }
   }
  }
 }
 JOINT LeftHip
 {
  OFFSET 7.771700 -0.012900 -0.001300
  CHANNELS 3 Yrotation Xrotation Zrotation
  JOINT LeftKnee
  {
   OFFSET 0.000000 -40.869800 0.001200
   CHANNELS 3 Yrotation Xrotation Zrotation
   JOINT LeftAnkle
   {
    OFFSET 0.000000 -39.717900 0.002100
    CHANNELS 3 Yrotation Xrotation Zrotation
    JOINT LeftToe
    {
     OFFSET 0.000000 -4.965400 11.033500
     CHANNELS 3 Yrotation Xrotation Zrotation
     End Site
     {
      OFFSET 0.000000 -1.423100 5.872300
     }
    }
   }
  }
 }
}
MOTION
Frames: 13
Frame Time: 0.008333
-54.067193 56.436614 -20.245060 -176.552464 -16.061434 -0.175380 -0.658982 15.168628 -0.536639 -0.049148 1.408148 0.020070 -0.084400 2.376481 0.039625 -0.460461 13.559368 0.137859 0.665969 13.019816 -1.978273 1.147351 -12.036832 -2.237768 -2.309763 0.261606 1.582156 0.296675 -4.165308 -6.088321 -83.757046 -58.287035 115.056850 -12.909717 4.955266 3.499093 -6.077175 -2.156856 1.396074 -0.043451 -10.902399 8.583857 75.114671 -62.350030 -116.397725 3.776002 -17.733157 7.092114 -4.192865 -59.114994 10.941461 -36.188558 83.784425 -41.374558 -10.090718 -16.898006 13.734989 0.294985 -0.576613 0.110648 18.483322 -52.916917 -21.679803 65.280961 71.725102 66.243439 -7.695980 -14.735466 1.743148 0.300996 0.785429 0.132238
-54.069035 56.436607 -20.244327 -176.551061 -16.064131 -0.167971 -0.666023 15.180475 -0.534600 -0.054794 1.418347 0.031852 -0.078580 2.363829 0.023214 -0.471760 13.589516 0.169648 0.628949 12.955635 -2.131441 1.139642 -12.081437 -2.368786 -2.305715 0.225127 1.560445 0.286740 -4.162956 -6.089852 -83.765224 -58.250836 115.023484 -12.891251 4.980636 3.518657 -6.089911 -2.193176 1.366711 -0.041363 -10.897941 8.584194 75.127180 -62.348285 -116.391014 3.774138 -17.738942 7.092037 -4.179533 -59.112908 10.926113 -36.196483 83.780415 -41.382515 -10.105197 -16.882030 13.738909 0.295259 -0.562739 0.113640 18.503936 -52.907117 -21.700556 65.263291 71.723247 66.232250 -7.697255 -14.735760 1.744307 0.301757 0.786194 0.134594
-54.071033 56.436409 -20.242804 -176.545693 -16.063218 -0.161104 -0.685539 15.194640 -0.526733 -0.046750 1.407729 0.017217 -0.089069 2.381764 0.041796 -0.474083 13.584484 0.164285 0.595711 12.915195 -2.259755 1.135203 -12.121354 -2.497924 -2.301974 0.209654 1.561280 0.274931 -4.162292 -6.094141 -83.748962 -58.241942 114.996283 -12.879150 4.990004 3.531167 -6.097396 -2.204642 1.354187 -0.037541 -10.894984 8.583378 75.049435 -62.341624 -116.289434 3.766928 -17.758365 7.073157 -4.166922 -59.114229 10.908054 -36.169231 83.779950 -41.356217 -10.116970 -16.870861 13.740578 0.298387 -0.549656 0.118674 18.513083 -52.904872 -21.716955 65.251566 71.720399 66.220573 -7.699584 -14.729026 1.746002 0.303002 0.783859 0.135271
-54.072853 56.435794 -20.239824 -176.533840 -16.054146 -0.157564 -0.704888 15.191243 -0.527970 -0.044878 1.407477 0.014028 -0.094650 2.387280 0.049839 -0.477388 13.586989 0.166717 0.582247 12.891487 -2.329523 1.126348 -12.164470 -2.672183 -2.298679 0.200460 1.569237 0.263834 -4.163498 -6.099892 -83.733508 -58.247431 114.984796 -12.879466 4.991574 3.529605 -6.096490 -2.214853 1.342079 -0.044189 -10.876106 8.587067 75.009396 -62.340395 -116.227724 3.771895 -17.775121 7.060260 -4.161898 -59.124739 10.893852 -36.151922 83.778361 -41.337966 -10.132307 -16.857405 13.739510 0.302456 -0.540503 0.125338 18.520201 -52.911597 -21.736073 65.229365 71.718433 66.195089 -7.693949 -14.718840 1.753619 0.296238 0.781889 0.132802
-54.074201 56.435752 -20.238630 -176.530271 -16.056639 -0.156308 -0.711039 15.195381 -0.528133 -0.051661 1.414252 0.023112 -0.095480 2.388674 0.050142 -0.474940 13.581477 0.158903 0.541475 12.866334 -2.458700 1.131763 -12.191520 -2.774059 -2.303018 0.204881 1.582141 0.262660 -4.165491 -6.101860 -83.728966 -58.251271 114.975984 -12.896601 5.002061 3.520742 -6.103010 -2.215312 1.340848 -0.049029 -10.846649 8.590654 75.001827 -62.341017 -116.194237 3.778762 -17.777054 7.051067 -4.157989 -59.123137 10.888838 -36.115626 83.778200 -41.300976 -10.150564 -16.839609 13.738026 0.300472 -0.537455 0.129693 18.523938 -52.909756 -21.739171 65.225314 71.721105 66.189816 -7.698300 -14.711543 1.756806 0.298758 0.777043 0.134103
-54.075619 56.435826 -20.237572 -176.530880 -16.060262 -0.154469 -0.719096 15.204585 -0.522696 -0.052450 1.415488 0.024178 -0.093876 2.389360 0.048323 -0.483230 13.587598 0.171756 0.509756 12.837133 -2.604911 1.137263 -12.215338 -2.872171 -2.300434 0.203294 1.576646 0.259158 -4.167127 -6.105019 -83.695377 -58.228437 114.923863 -12.879650 5.006014 3.528234 -6.109693 -2.214144 1.337129 -0.029259 -10.849209 8.573208 74.946276 -62.338535 -116.114933 3.778774 -17.767692 7.040705 -4.150949 -59.120134 10.885468 -36.052640 83.779921 -41.240912 -10.163815 -16.822001 13.740759 0.296265 -0.542642 0.130345 18.538706 -52.904539 -21.749590 65.219851 71.722875 66.190649 -7.699323 -14.706739 1.755689 0.299060 0.773014 0.137105
-54.076945 56.435789 -20.235943 -176.539975 -16.060104 -0.151181 -0.717669 15.209992 -0.516561 -0.059062 1.425071 0.033101 -0.083457 2.376775 0.033154 -0.499625 13.622171 0.202376 0.504317 12.795715 -2.691551 1.137787 -12.241972 -3.031489 -2.291890 0.179466 1.559328 0.256984 -4.163224 -6.109082 -83.707348 -58.238858 114.947041 -12.899324 5.004899 3.499196 -6.096078 -2.248016 1.310071 -0.024699 -10.841548 8.568585 74.890103 -62.337120 -116.030103 3.796062 -17.738478 7.055582 -4.130297 -59.122042 10.876062 -35.967119 83.778160 -41.149062 -10.181192 -16.800765 13.737192 0.295973 -0.546807 0.132744 18.556375 -52.901892 -21.759135 65.213090 71.721177 66.189551 -7.697780 -14.708278 1.752008 0.296726 0.774953 0.139989
-54.078548 56.436209 -20.235695 -176.556834 -16.067919 -0.144730 -0.709176 15.222800 -0.512886 -0.054704 1.424185 0.029618 -0.088659 2.382329 0.038110 -0.497131 13.633086 0.204108 0.475661 12.768880 -2.819435 1.140839 -12.264657 -3.116271 -2.293507 0.166133 1.557856 0.247752 -4.151608 -6.099644 -83.694076 -58.237870 114.934941 -12.915481 5.010140 3.466339 -6.111656 -2.232612 1.326562 0.014912 -10.806932 8.558259 74.945049 -62.338064 -116.071239 3.801937 -17.735588 7.045629 -4.105467 -59.115361 10.866114 -35.939520 83.769985 -41.119063 -10.167394 -16.778179 13.725891 0.302990 -0.547338 0.138827 18.575153 -52.886489 -21.761179 65.200463 71.718268 66.179757 -7.698416 -14.720663 1.750040 0.296708 0.784707 0.141777
-54.078879 56.436269 -20.234276 -176.560895 -16.066783 -0.148839 -0.706089 15.229654 -0.500183 -0.053970 1.421286 0.025819 -0.087576 2.399450 0.047805 -0.496886 13.631934 0.200588 0.445703 12.745211 -2.941717 1.139427 -12.286849 -3.195466 -2.301913 0.153707 1.559439 0.246928 -4.141253 -6.093710 -83.659553 -58.218703 114.883005 -12.894093 5.018361 3.469764 -6.119170 -2.243402 1.327406 0.035881 -10.778572 8.557900 74.938382 -62.341916 -116.043718 3.806865 -17.723818 7.049985 -4.109369 -59.117218 10.875445 -35.918389 83.763018 -41.100573 -10.140885 -16.748254 13.710231 0.302248 -0.542261 0.144262 18.576902 -52.887581 -21.755740 65.189772 71.717947 66.173625 -7.704145 -14.722651 1.743814 0.300739 0.787918 0.143771
-54.080791 56.436319 -20.232910 -176.553036 -16.064967 -0.146619 -0.709198 15.243507 -0.490098 -0.053703 1.425044 0.026563 -0.093420 2.382791 0.035818 -0.489451 13.649273 0.210292 0.418951 12.724545 -3.036976 1.133954 -12.306828 -3.292207 -2.317628 0.149615 1.568289 0.241472 -4.099800 -6.078924 -83.732209 -58.251212 114.975260 -12.904750 5.030538 3.458030 -6.130078 -2.252416 1.328977 0.054744 -10.747221 8.558470 74.946684 -62.349555 -116.033532 3.806973 -17.721640 7.050971 -4.114711 -59.119016 10.870321 -35.983679 83.752282 -41.169502 -10.112699 -16.728124 13.697000 0.293841 -0.553933 0.152298 18.579880 -52.885855 -21.764858 65.175263 71.713665 66.155780 -7.705132 -14.718879 1.748389 0.297658 0.788780 0.143133
-54.082207 56.436551 -20.232633 -176.553562 -16.067927 -0.145365 -0.706571 15.253295 -0.485165 -0.051415 1.429096 0.029286 -0.095773 2.386727 0.035692 -0.482939 13.653840 0.214161 0.391980 12.705556 -3.128501 1.127365 -12.325103 -3.385020 -2.332114 0.147191 1.576431 0.239136 -4.084981 -6.078606 -83.727768 -58.255987 114.971025 -12.883673 5.022928 3.476572 -6.142395 -2.246792 1.338461 0.067231 -10.750770 8.547032 74.925629 -62.358857 -115.984616 3.806996 -17.718259 7.056080 -4.118383 -59.115487 10.873702 -35.969992 83.749063 -41.161906 -10.096325 -16.710741 13.686093 0.288701 -0.562922 0.158772 18.584097 -52.881048 -21.767195 65.168579 71.713441 66.148643 -7.703327 -14.718885 1.750721 0.297364 0.789323 0.142276
-54.084837 56.436618 -20.232110 -176.552397 -16.067803 -0.137381 -0.708915 15.255174 -0.491637 -0.045518 1.438121 0.035788 -0.089066 2.401691 0.044772 -0.488757 13.647574 0.208319 0.366072 12.687238 -3.216108 1.120923 -12.342686 -3.473982 -2.344567 0.148229 1.584063 0.234997 -4.072510 -6.076535 -83.664180 -58.245501 114.911666 -12.855868 5.002884 3.483617 -6.154662 -2.248136 1.352000 0.079094 -10.747211 8.533748 74.918210 -62.366226 -115.946175 3.806482 -17.713785 7.061392 -4.108464 -59.115870 10.860131 -35.969815 83.746030 -41.164994 -10.090357 -16.698829 13.681976 0.273534 -0.541781 0.150463 18.596995 -52.877513 -21.783816 65.162205 71.714107 66.140699 -7.698811 -14.714248 1.755238 0.294259 0.785927 0.139420
-54.087899 56.436299 -20.230765 -176.547218 -16.060601 -0.127909 -0.709024 15.258342 -0.491312 -0.047777 1.436125 0.031900 -0.090790 2.400205 0.043460 -0.487468 13.650873 0.209618 0.347517 12.679633 -3.296019 1.112545 -12.359631 -3.557957 -2.349029 0.157517 1.596296 0.232784 -4.056397 -6.076596 -83.656044 -58.246740 114.911806 -12.892646 5.017337 3.455112 -6.149867 -2.219038 1.372231 0.115298 -10.688745 8.537309 75.057284 -62.366728 -116.091722 3.807511 -17.710839 7.059169 -4.096134 -59.124894 10.843290 -35.990337 83.739905 -41.183153 -10.118243 -16.678813 13.679915 0.272928 -0.541572 0.151152 18.612426 -52.880621 -21.808795 65.164316 71.703556 66.140875 -7.706269 -14.705547 1.759306 0.293193 0.780735 0.136477
